<svg width="15" height="16" viewBox="0 0 15 16" fill="none" xmlns="http://www.w3.org/2000/svg">
<path d="M14.796 13.4695L11.8749 10.5483C11.743 10.4165 11.5643 10.3432 11.3768 10.3432H10.8992C11.7079 9.30899 12.1884 8.00812 12.1884 6.59297C12.1884 3.22652 9.46065 0.498779 6.0942 0.498779C2.72774 0.498779 0 3.22652 0 6.59297C0 9.95943 2.72774 12.6872 6.0942 12.6872C7.50934 12.6872 8.81021 12.2067 9.84447 11.398V11.8756C9.84447 12.0631 9.91772 12.2418 10.0496 12.3737L12.9707 15.2948C13.2461 15.5702 13.6914 15.5702 13.9639 15.2948L14.7931 14.4656C15.0685 14.1902 15.0685 13.7449 14.796 13.4695ZM6.0942 10.3432C4.02276 10.3432 2.34392 8.66735 2.34392 6.59297C2.34392 4.52153 4.01982 2.8427 6.0942 2.8427C8.16564 2.8427 9.84447 4.5186 9.84447 6.59297C9.84447 8.66442 8.16857 10.3432 6.0942 10.3432Z" fill="#717171"/>
</svg>
