<svg width="17" height="12" viewBox="0 0 17 12" fill="none" xmlns="http://www.w3.org/2000/svg">
<path d="M6.60038 1.60041C6.9665 1.2343 6.9665 0.640697 6.60038 0.274584C6.23425 -0.0915281 5.64075 -0.0915281 5.27459 0.274584L0.274587 5.27462C0.0915248 5.45762 0 5.69762 0 5.9375C0 6.06462 0.0253001 6.18587 0.0711376 6.29637C0.116888 6.40687 0.1847 6.5105 0.274587 6.60037L5.27459 11.6004C5.64075 11.9665 6.23425 11.9665 6.60038 11.6004C6.9665 11.2342 6.9665 10.6407 6.60038 10.2746L3.20083 6.875H15.3125C15.8303 6.875 16.25 6.45525 16.25 5.9375C16.25 5.41975 15.8303 5 15.3125 5H3.20083L6.60038 1.60041Z" fill="#717171"/>
</svg>
