<svg width="26" height="26" viewBox="0 0 26 26" fill="none" xmlns="http://www.w3.org/2000/svg">
<path fill-rule="evenodd" clip-rule="evenodd" d="M9.67326 4.84285C8.29612 4.68893 6.87055 4.68893 5.49339 4.84285C5.15876 4.88025 4.89486 5.14522 4.85723 5.46704C4.69277 6.87314 4.69277 8.29362 4.85723 9.69973C4.89486 10.0215 5.15876 10.2865 5.49339 10.3239C6.87055 10.4778 8.29612 10.4778 9.67326 10.3239C10.0079 10.2865 10.2718 10.0215 10.3094 9.69973C10.4739 8.29362 10.4739 6.87314 10.3094 5.46704C10.2718 5.14522 10.0079 4.88025 9.67326 4.84285ZM5.3129 3.22791C6.81001 3.06059 8.35665 3.06059 9.85376 3.22791C10.9272 3.34788 11.7965 4.19287 11.9234 5.27827C12.1026 6.80979 12.1026 8.35697 11.9234 9.8885C11.7965 10.9739 10.9272 11.8189 9.85376 11.9388C8.35665 12.1062 6.81001 12.1062 5.3129 11.9388C4.23949 11.8189 3.37018 10.9739 3.24323 9.8885C3.0641 8.35697 3.0641 6.80979 3.24323 5.27827C3.37018 4.19287 4.23949 3.34788 5.3129 3.22791Z" fill="#717171"/>
<path fill-rule="evenodd" clip-rule="evenodd" d="M9.67326 15.6761C8.29612 15.5222 6.87055 15.5222 5.49339 15.6761C5.15876 15.7135 4.89486 15.9785 4.85723 16.3003C4.69277 17.7064 4.69277 19.1269 4.85723 20.5329C4.89486 20.8548 5.15876 21.1198 5.49339 21.1571C6.87055 21.3111 8.29612 21.3111 9.67326 21.1571C10.0079 21.1198 10.2718 20.8548 10.3094 20.5329C10.4739 19.1269 10.4739 17.7064 10.3094 16.3003C10.2718 15.9785 10.0079 15.7135 9.67326 15.6761ZM5.3129 14.0612C6.81001 13.8938 8.35665 13.8938 9.85376 14.0612C10.9272 14.1811 11.7965 15.0261 11.9234 16.1115C12.1026 17.643 12.1026 19.1902 11.9234 20.7217C11.7965 21.8071 10.9272 22.6521 9.85376 22.7721C8.35665 22.9394 6.81001 22.9394 5.3129 22.7721C4.23949 22.6521 3.37018 21.8071 3.24323 20.7217C3.0641 19.1902 3.0641 17.643 3.24323 16.1115C3.37018 15.0261 4.23949 14.1811 5.3129 14.0612Z" fill="#717171"/>
<path fill-rule="evenodd" clip-rule="evenodd" d="M20.5067 4.84285C19.1294 4.68893 17.7039 4.68893 16.3268 4.84285C15.9921 4.88025 15.7282 5.14522 15.6906 5.46704C15.5262 6.87314 15.5262 8.29362 15.6906 9.69973C15.7282 10.0215 15.9921 10.2865 16.3268 10.3239C17.7039 10.4778 19.1294 10.4778 20.5067 10.3239C20.8413 10.2865 21.1052 10.0215 21.1428 9.69973C21.3073 8.29362 21.3073 6.87314 21.1428 5.46704C21.1052 5.14522 20.8413 4.88025 20.5067 4.84285ZM16.1463 3.22791C17.6434 3.06059 19.19 3.06059 20.6872 3.22791C21.7605 3.34788 22.6299 4.19287 22.7568 5.27827C22.936 6.80979 22.936 8.35697 22.7568 9.8885C22.6299 10.9739 21.7605 11.8189 20.6872 11.9388C19.19 12.1062 17.6434 12.1062 16.1463 11.9388C15.0729 11.8189 14.2035 10.9739 14.0766 9.8885C13.8975 8.35697 13.8975 6.80979 14.0766 5.27827C14.2035 4.19287 15.0729 3.34788 16.1463 3.22791Z" fill="#717171"/>
<path fill-rule="evenodd" clip-rule="evenodd" d="M20.5067 15.6761C19.1294 15.5222 17.7039 15.5222 16.3268 15.6761C15.9921 15.7135 15.7282 15.9785 15.6906 16.3003C15.5262 17.7064 15.5262 19.1269 15.6906 20.5329C15.7282 20.8548 15.9921 21.1198 16.3268 21.1571C17.7039 21.3111 19.1294 21.3111 20.5067 21.1571C20.8413 21.1198 21.1052 20.8548 21.1428 20.5329C21.3073 19.1269 21.3073 17.7064 21.1428 16.3003C21.1052 15.9785 20.8413 15.7135 20.5067 15.6761ZM16.1463 14.0612C17.6434 13.8938 19.19 13.8938 20.6872 14.0612C21.7605 14.1811 22.6299 15.0261 22.7568 16.1115C22.936 17.643 22.936 19.1902 22.7568 20.7217C22.6299 21.8071 21.7605 22.6521 20.6872 22.7721C19.19 22.9394 17.6434 22.9394 16.1463 22.7721C15.0729 22.6521 14.2035 21.8071 14.0766 20.7217C13.8975 19.1902 13.8975 17.643 14.0766 16.1115C14.2035 15.0261 15.0729 14.1811 16.1463 14.0612Z" fill="#717171"/>
</svg>
