<svg width="163" height="42" viewBox="0 0 163 42" fill="none" xmlns="http://www.w3.org/2000/svg">
<g filter="url(#filter0_d_133_812)">
<path d="M-11.1222 24.4498C-10.0475 24.5755 -9.10648 24.8171 -8.05261 25.2789C-6.99158 25.5912 -6.00852 26.0196 -5.24934 26.8757C-3.41235 28.2142 -1.78315 29.9933 0.274403 31.0221C3.0524 32.4111 5.27833 33.9629 8.40197 34.544C12.8228 35.3665 16.0555 32.2393 19.5435 30.1077C22.7318 28.1593 26.5571 26.696 28.9579 23.7411C30.3549 22.0218 31.4535 19.9523 32.9201 18.3228C34.5255 16.539 35.647 14.6517 37.1532 12.7689C38.7996 10.711 41.2621 9.76175 43.6214 8.60356C48.734 6.09372 55.878 6.9447 60.0797 10.9064C65.0142 15.5589 73.3644 14.8404 79.9584 15.0717C82.7737 15.1705 85.8041 10.0314 87.2055 8.12945C92.1362 1.43771 96.1086 6.79846 99.2275 11.9223C104.442 20.4884 109.036 29.176 115.449 36.9823C118.424 40.6039 124.965 32.4929 124.965 29.1595C124.965 26.2507 125.47 23.0118 127.674 20.9304C132.078 16.7715 137.986 24.0933 142.033 26.0101C144.067 26.9735 147.021 23.3447 148.433 22.1495C152.006 19.1264 153.343 18.3805 157.136 22.6913C160.794 26.8481 167.687 25.536 172.748 25.536H182.637C188.529 25.536 190.425 36.7253 191.746 41.1815C193.143 45.8902 192.809 49.3304 193.372 54.1857C194.06 60.1197 194.455 66.3933 194.455 72.3711C194.455 84.1215 174.584 81.6162 166.483 81.6162H151.583H128.385C125.436 81.6162 120.839 80.8927 117.785 81.7516C114.419 82.6986 111.001 82.6312 107.491 82.6999C93.836 82.967 80.1704 82.8353 66.5141 82.8353H43.0796H22.422C19.9161 82.8353 18.1792 81.0005 16.2247 79.5504C13.5007 77.5294 10.4926 76.2176 7.45375 74.7755C5.18142 73.6971 -0.363981 71.888 -1.21565 69.1201C-1.97304 66.6585 -4.25737 66.4447 -5.95673 64.8869C-7.55334 63.4234 -10.298 62.9923 -12.2895 62.4148C-13.6302 62.026 -19.7134 61.3449 -20.5863 59.6718C-22.5995 55.8131 -16.6717 49.5279 -15.5066 46.1258C-14.4078 42.9172 -14.1089 39.3621 -13.5425 36.0341C-13.065 33.2291 -13.5598 30.4861 -13.9827 27.7372C-14.2017 26.3134 -14.1865 24.844 -13.3201 24.3255C-12.8872 24.0664 -12.242 24.0447 -11.3074 24.3846C-11.2459 24.4069 -11.1841 24.4287 -11.1222 24.4498Z" fill="#F21010" fill-opacity="0.21" shape-rendering="crispEdges"/>
<path d="M-14.6261 24.3169C-10.9234 24.3169 -9.33304 24.4356 -6.36311 26.1456C-4.03712 27.4848 -2.18815 29.7908 0.274403 31.0221C3.0524 32.4111 5.27833 33.9629 8.40197 34.544C12.8228 35.3665 16.0555 32.2393 19.5435 30.1077C22.7318 28.1593 26.5571 26.696 28.9579 23.7411C30.3549 22.0218 31.4535 19.9523 32.9201 18.3228C34.5255 16.539 35.647 14.6517 37.1532 12.7689C38.7996 10.711 41.2621 9.76175 43.6214 8.60356C48.734 6.09372 55.878 6.9447 60.0797 10.9064C65.0142 15.5589 73.3644 14.8404 79.9584 15.0717C82.7737 15.1705 85.8041 10.0314 87.2055 8.12945C92.1362 1.43771 96.1086 6.79846 99.2275 11.9223C104.442 20.4884 109.036 29.176 115.449 36.9823C118.424 40.6039 124.965 32.4929 124.965 29.1595C124.965 26.2507 125.47 23.0118 127.674 20.9304C132.078 16.7715 137.986 24.0933 142.033 26.0101C144.067 26.9735 147.021 23.3447 148.433 22.1495C152.006 19.1264 153.343 18.3805 157.136 22.6913C160.794 26.8481 167.687 25.536 172.748 25.536C176.044 25.536 179.34 25.536 182.637 25.536C188.529 25.536 190.425 36.7253 191.746 41.1815C193.143 45.8902 192.809 49.3304 193.372 54.1857C194.06 60.1197 194.455 66.3933 194.455 72.3711C194.455 84.1215 174.584 81.6162 166.483 81.6162C161.516 81.6162 156.549 81.6162 151.583 81.6162C143.85 81.6162 136.118 81.6162 128.385 81.6162C125.436 81.6162 120.839 80.8927 117.785 81.7516C114.419 82.6986 111.001 82.6312 107.491 82.6999C93.836 82.967 80.1704 82.8353 66.5141 82.8353C58.7026 82.8353 50.8911 82.8353 43.0796 82.8353C36.1937 82.8353 29.3079 82.8353 22.422 82.8353C19.9161 82.8353 18.1792 81.0005 16.2247 79.5504C13.5007 77.5294 10.4926 76.2176 7.45375 74.7755C5.18142 73.6971 -0.363982 71.888 -1.21565 69.1201C-1.97304 66.6585 -4.25737 66.4447 -5.95673 64.8869C-7.55334 63.4234 -10.298 62.9923 -12.2895 62.4148C-13.6302 62.026 -19.7134 61.3449 -20.5863 59.6718C-22.5995 55.8131 -16.6717 49.5279 -15.5066 46.1258C-14.4078 42.9172 -14.1089 39.3621 -13.5425 36.0341C-13.065 33.2291 -13.5598 30.4861 -13.9827 27.7372C-14.3112 25.6022 -14.1128 23.3644 -11.3074 24.3846C-8.9824 25.23 -6.34088 25.163 -4.87305 27.3647" stroke="#F21010" stroke-width="2" stroke-linecap="round" shape-rendering="crispEdges"/>
</g>
<defs>
<filter id="filter0_d_133_812" x="-23.9999" y="-0.000244141" width="229.455" height="91.868" filterUnits="userSpaceOnUse" color-interpolation-filters="sRGB">
<feFlood flood-opacity="0" result="BackgroundImageFix"/>
<feColorMatrix in="SourceAlpha" type="matrix" values="0 0 0 0 0 0 0 0 0 0 0 0 0 0 0 0 0 0 127 0" result="hardAlpha"/>
<feOffset dx="4" dy="2"/>
<feGaussianBlur stdDeviation="3"/>
<feComposite in2="hardAlpha" operator="out"/>
<feColorMatrix type="matrix" values="0 0 0 0 0.94902 0 0 0 0 0.0627451 0 0 0 0 0.0627451 0 0 0 0.29 0"/>
<feBlend mode="normal" in2="BackgroundImageFix" result="effect1_dropShadow_133_812"/>
<feBlend mode="normal" in="SourceGraphic" in2="effect1_dropShadow_133_812" result="shape"/>
</filter>
</defs>
</svg>
