<svg width="163" height="37" viewBox="0 0 163 37" fill="none" xmlns="http://www.w3.org/2000/svg">
<g filter="url(#filter0_d_133_817)">
<path d="M-5.0321 29.7796C-10.7457 33.4526 -15.7686 29.0646 -21.7022 28.8717C-22.5791 28.308 -23.5185 27.9207 -24.8092 28.2895C-26.7204 28.8356 -25.7574 35.2147 -25.7574 36.7896C-25.7574 41.1301 -24.4846 44.9772 -23.9287 49.2857C-22.7522 58.4035 -15.9432 65.2744 -11.0262 72.7202C-7.55085 77.9828 -3.64798 79.5342 2.31658 81.8976C8.14359 84.2064 13.6493 87.562 19.8247 88.7383C36.2297 91.863 53.323 91.6223 69.9447 91.6506C88.6154 91.6825 107.286 91.6506 125.957 91.6506C136.845 91.6506 147.698 91.8991 158.535 90.6347C173.703 88.8651 193.293 86.5489 204.795 75.26C208.225 71.8935 205.269 65.8573 205.269 61.7141V51.2837C205.269 46.1074 204.304 41.0076 202.83 36.0445C202.135 33.7023 200.329 28.5175 197.717 27.7138C194.627 26.7632 189.741 27.6461 186.643 27.6461C182.275 27.6461 176.873 28.5906 172.657 27.3074C168.862 26.1525 168.081 23.3348 166.866 19.9926C165.076 15.0691 160.82 9.94898 155.284 12.6778C150.838 14.8694 149.713 16.674 145.192 14.371C142.516 13.0074 140.02 10.6248 137.336 9.4945C132.003 7.24912 130.76 30.6939 125.144 30.6939C122.281 30.6939 116.393 30.8484 113.969 29.2038C112.551 28.2414 112.113 25.0936 111.09 23.6161C108.421 19.7607 107.925 13.8126 106.045 9.4945C105.328 7.85006 104.339 4.22005 102.116 5.70164C100.019 7.09998 98.3949 8.94829 96.7657 10.8491C93.4708 14.6931 88.7784 17.148 83.5245 17.148C78.3029 17.148 74.3643 12.2208 70.2156 9.96861C66.6025 8.00724 65.1833 4.26761 60.4625 5.12594C52.9063 6.49979 49.1532 14.6439 44.9524 19.9249C42.6574 22.81 38.2777 27.8496 34.5559 28.2218C31.2488 28.5525 29.171 27.4621 26.1913 26.2915C24.158 25.4927 21.4855 23.4426 20.4343 21.5504C19.8696 20.534 18.8039 19.0202 17.7928 18.4687C15.8453 17.4064 12.4839 16.7406 10.5457 18.5026C9.02776 19.8825 6.88709 21.5761 5.05963 22.6341C1.42198 24.7401 -1.52308 27.5238 -5.0321 29.7796Z" fill="#0FC136" fill-opacity="0.28" shape-rendering="crispEdges"/>
<path d="M-22.1 28.8652C-15.992 28.8652 -10.8729 33.5344 -5.0321 29.7796C-1.52308 27.5238 1.42198 24.7401 5.05963 22.6341C6.88709 21.5761 9.02776 19.8825 10.5457 18.5026C12.4839 16.7406 15.8453 17.4064 17.7928 18.4687C18.8039 19.0202 19.8696 20.534 20.4343 21.5504C21.4855 23.4426 24.158 25.4927 26.1913 26.2915C29.171 27.4621 31.2488 28.5525 34.5559 28.2218C38.2777 27.8496 42.6574 22.81 44.9524 19.9249C49.1532 14.6439 52.9063 6.49979 60.4625 5.12594C65.1833 4.26761 66.6025 8.00724 70.2156 9.96861C74.3643 12.2208 78.3029 17.148 83.5245 17.148C88.7784 17.148 93.4708 14.6931 96.7657 10.8491C98.3949 8.94829 100.019 7.09998 102.116 5.70164C104.339 4.22005 105.328 7.85006 106.045 9.4945C107.925 13.8126 108.421 19.7607 111.09 23.6161C112.113 25.0936 112.551 28.2414 113.969 29.2038C116.393 30.8484 122.281 30.6939 125.144 30.6939C130.76 30.6939 132.003 7.24912 137.336 9.4945C140.02 10.6248 142.516 13.0074 145.192 14.371C149.713 16.674 150.838 14.8694 155.284 12.6778C160.82 9.94898 165.076 15.0691 166.866 19.9926C168.081 23.3348 168.862 26.1525 172.657 27.3074C176.873 28.5906 182.275 27.6461 186.643 27.6461C189.741 27.6461 194.627 26.7632 197.717 27.7138C200.329 28.5175 202.135 33.7023 202.83 36.0445C204.304 41.0076 205.269 46.1074 205.269 51.2837C205.269 54.7605 205.269 58.2373 205.269 61.7141C205.269 65.8573 208.225 71.8935 204.795 75.26C193.293 86.5489 173.703 88.8651 158.535 90.6347C147.698 91.8991 136.845 91.6506 125.957 91.6506C107.286 91.6506 88.6154 91.6825 69.9447 91.6506C53.323 91.6223 36.2297 91.863 19.8247 88.7383C13.6494 87.562 8.14359 84.2064 2.31658 81.8976C-3.64798 79.5342 -7.55085 77.9828 -11.0262 72.7202C-15.9432 65.2744 -22.7522 58.4035 -23.9287 49.2857C-24.4846 44.9772 -25.7574 41.1301 -25.7574 36.7896C-25.7574 35.2147 -26.7204 28.8356 -24.8092 28.2895C-21.7935 27.4279 -20.6949 30.6939 -17.833 30.6939" stroke="#0B992B" stroke-width="2" stroke-linecap="round" shape-rendering="crispEdges"/>
</g>
<defs>
<filter id="filter0_d_133_817" x="-29" y="0" width="246.452" height="100.671" filterUnits="userSpaceOnUse" color-interpolation-filters="sRGB">
<feFlood flood-opacity="0" result="BackgroundImageFix"/>
<feColorMatrix in="SourceAlpha" type="matrix" values="0 0 0 0 0 0 0 0 0 0 0 0 0 0 0 0 0 0 127 0" result="hardAlpha"/>
<feOffset dx="4" dy="2"/>
<feGaussianBlur stdDeviation="3"/>
<feComposite in2="hardAlpha" operator="out"/>
<feColorMatrix type="matrix" values="0 0 0 0 0.0627451 0 0 0 0 0.94902 0 0 0 0 0.257726 0 0 0 0.29 0"/>
<feBlend mode="normal" in2="BackgroundImageFix" result="effect1_dropShadow_133_817"/>
<feBlend mode="normal" in="SourceGraphic" in2="effect1_dropShadow_133_817" result="shape"/>
</filter>
</defs>
</svg>
