<svg width="26" height="26" viewBox="0 0 26 26" fill="none" xmlns="http://www.w3.org/2000/svg">
<path d="M19.175 2.16663H6.82496C4.22496 2.16663 2.16663 4.22496 2.16663 6.82496V19.2833C2.16663 21.775 4.22496 23.8333 6.82496 23.8333H19.2833C21.8833 23.8333 23.9416 21.775 23.9416 19.175V6.82496C23.8333 4.22496 21.775 2.16663 19.175 2.16663ZM21.6666 19.175C21.6666 20.5833 20.5833 21.6666 19.175 21.6666H6.82496C5.41663 21.6666 4.33329 20.5833 4.33329 19.175V6.82496C4.33329 5.41663 5.41663 4.33329 6.82496 4.33329H8.44996V13C8.44996 13.4333 8.66663 13.7583 9.09996 13.975C9.09996 14.0833 9.31663 14.0833 9.42496 14.0833C9.64163 14.0833 9.85829 13.975 10.075 13.8666L13 11.7L15.925 13.8666C16.25 14.0833 16.6833 14.1916 17.0083 13.975C17.3333 13.7583 17.6583 13.4333 17.6583 13V6.49996C17.6583 5.84996 17.225 5.41663 16.575 5.41663C15.925 5.41663 15.4916 5.84996 15.4916 6.49996V10.8333L13.65 9.42496C13.2166 9.09996 12.7833 9.09996 12.35 9.42496L10.5083 10.8333V4.33329H19.175C20.5833 4.33329 21.6666 5.41663 21.6666 6.82496V19.175Z" fill="#717171"/>
<path d="M12.1334 18.0917H6.82503C6.17503 18.0917 5.7417 18.525 5.7417 19.175C5.7417 19.825 6.17503 20.2583 6.82503 20.2583H12.1334C12.7834 20.2583 13.2167 19.825 13.2167 19.175C13.2167 18.525 12.675 18.0917 12.1334 18.0917Z" fill="#717171"/>
</svg>
