<svg width="24" height="24" viewBox="0 0 24 24" fill="none" xmlns="http://www.w3.org/2000/svg">
<path d="M6.79999 19.0762H3.49999C3.29999 19.0762 3.19999 18.9762 3.09999 18.8762C2.99999 18.7762 2.89999 18.5762 2.99999 18.3762C3.59999 16.6762 5.09999 15.6762 6.79999 15.6762C8.89999 15.6762 10.6 13.8762 10.6 11.7762C10.6 9.67615 8.89999 7.67615 6.79999 7.67615C4.69999 7.67615 2.99999 9.47615 2.99999 11.6762C2.99999 12.6762 3.39999 13.6762 3.99999 14.3762C2.69999 15.0762 1.69999 16.1762 1.09999 17.6762C0.899994 18.3762 0.999994 19.2762 1.49999 19.9762C1.99999 20.6762 2.69999 21.0762 3.49999 21.0762H6.79999C7.39999 21.0762 7.79999 20.6762 7.79999 20.0762C7.79999 19.4762 7.39999 19.0762 6.79999 19.0762ZM4.99999 11.6762C4.99999 10.5762 5.79999 9.77615 6.79999 9.77615C7.79999 9.77615 8.59999 10.6762 8.59999 11.6762C8.59999 12.7762 7.79999 13.5762 6.79999 13.5762C5.79999 13.5762 4.99999 12.6762 4.99999 11.6762Z" fill="#717171"/>
<path d="M22.8999 17.0761C22.1999 15.1761 20.7999 13.7761 19.1999 12.9761C20.0999 12.1761 20.5999 10.9761 20.5999 9.5761C20.5999 6.9761 18.5999 4.8761 16.1999 4.8761C13.7999 4.8761 11.7999 6.9761 11.7999 9.5761C11.7999 10.8761 12.2999 12.0761 13.1999 12.9761C11.5999 13.7761 10.1999 15.1761 9.49995 17.0761C8.99995 17.9761 9.19995 18.9761 9.69995 19.7761C10.1999 20.5761 11.0999 20.9761 11.9999 20.9761H20.2999C21.1999 20.9761 22.0999 20.4761 22.5999 19.7761C23.1999 18.9761 23.2999 17.9761 22.8999 17.0761ZM13.6999 9.6761C13.6999 8.1761 14.7999 6.9761 16.0999 6.9761C17.3999 6.9761 18.4999 8.1761 18.4999 9.6761C18.4999 11.1761 17.3999 12.3761 16.0999 12.3761C14.7999 12.3761 13.6999 11.0761 13.6999 9.6761ZM20.8999 18.6761C20.7999 18.7761 20.5999 19.0761 20.2999 19.0761H11.9999C11.5999 19.0761 11.3999 18.7761 11.3999 18.6761C11.2999 18.5761 11.0999 18.1761 11.2999 17.7761C12.0999 15.6761 14.0999 14.2761 16.1999 14.2761C18.2999 14.2761 20.2999 15.6761 21.0999 17.7761C21.1999 18.1761 20.9999 18.5761 20.8999 18.6761Z" fill="#717171"/>
</svg>
