<svg width="18" height="11" viewBox="0 0 18 11" fill="none" xmlns="http://www.w3.org/2000/svg">
<path d="M18 5.4968C18 5.58379 17.9523 5.66797 17.8737 5.70725L15.3737 7.20842C15.3344 7.23086 15.2951 7.2477 15.2474 7.2477C15.2081 7.2477 15.1604 7.23928 15.1211 7.21683C15.0426 7.16913 14.9949 7.09057 14.9949 6.99797V5.99906H8.29712C9.00702 7.11021 9.43351 8.9986 10.25 8.9986H10.9992V8.24661C10.9992 8.10631 11.1087 7.99688 11.2489 7.99688H13.749C13.8893 7.99688 13.9988 8.10631 13.9988 8.24661V10.7467C13.9988 10.887 13.8893 10.9964 13.749 10.9964H11.2489C11.1087 10.9964 10.9992 10.887 10.9992 10.7467V9.99751H10.25C8.13437 9.99751 7.97444 5.99906 6.75105 5.99906H3.93671C3.70943 6.85768 2.92938 7.50023 2.00062 7.50023C0.897896 7.49743 0 6.59953 0 5.4968C0 4.39408 0.897896 3.49618 2.00062 3.49618C2.92938 3.49618 3.71224 4.13593 3.93671 4.99735C5.03383 4.99735 5.16851 5.26391 6.02993 3.30257C7.15511 0.802494 7.66017 0.998909 9.08558 0.998909C9.29602 0.412471 9.84318 0 10.4998 0C11.3275 0 12.0009 0.670616 12.0009 1.50117C12.0009 2.33172 11.3303 3.00234 10.4998 3.00234C9.84318 3.00234 9.29602 2.58706 9.08558 2.00343H8.24942C7.43289 2.00343 7.00639 3.89462 6.29649 5.00296H14.9977V4.00405C14.9977 3.91146 15.0454 3.83289 15.1239 3.78519C15.2025 3.73749 15.3035 3.74591 15.3737 3.79361L17.8737 5.29478C17.9523 5.32564 18 5.40982 18 5.4968Z" fill="#772AF4"/>
</svg>
