<svg width="18" height="16" viewBox="0 0 18 16" fill="none" xmlns="http://www.w3.org/2000/svg">
<path d="M10.5 14H0.5C0.22375 14 0 14.2237 0 14.5V15.5C0 15.7762 0.22375 16 0.5 16H10.5C10.7762 16 11 15.7762 11 15.5V14.5C11 14.2237 10.7762 14 10.5 14ZM17 4V2.5C17 2.22375 16.7763 2 16.5 2C16.2237 2 16 2.22375 16 2.5V4H15V2.5C15 2.22375 14.7762 2 14.5 2C14.2238 2 14 2.22375 14 2.5V4H13.5C13.2238 4 13 4.22375 13 4.5V5.5C13 6.6175 13.7381 7.55281 14.75 7.87281V11.5756C14.75 12.0116 14.4531 12.4169 14.0231 12.4878C13.4756 12.5781 13 12.1559 13 11.625V10.75C13 9.23125 11.7688 8 10.25 8H10V2C10 0.895313 9.10469 0 8 0H3C1.89531 0 1 0.895313 1 2V13H10V9.5H10.25C10.9403 9.5 11.5 10.0597 11.5 10.75V11.5191C11.5 12.7587 12.4038 13.8678 13.6378 13.9881C15.0534 14.1266 16.25 13.0128 16.25 11.625V7.87281C17.2619 7.55281 18 6.6175 18 5.5V4.5C18 4.22375 17.7763 4 17.5 4H17ZM8.12781 5.4925L5.19969 9.83625C5.13094 9.94031 5.00562 10 4.875 10C4.63531 10 4.45406 9.80375 4.51031 9.59625L5.22969 7H3.375C3.14844 7 2.97344 6.82531 3.00344 6.62844L3.50344 3.28469C3.52813 3.12187 3.68688 3 3.875 3H6C6.24625 3 6.42563 3.20437 6.3625 3.41281L6 5H7.80312C8.09188 5 8.27219 5.27437 8.12781 5.4925Z" fill="#772AF4"/>
</svg>
