<svg width="18" height="16" viewBox="0 0 18 16" fill="none" xmlns="http://www.w3.org/2000/svg">
<path opacity="0.8" d="M9 0C4.02609 0 0 4.02525 0 9V10.6875C-2.69219e-06 10.8964 0.0581744 11.1012 0.168012 11.279C0.27785 11.4567 0.435009 11.6003 0.621879 11.6937L1.12753 11.9466C1.19823 14.0591 2.93277 15.75 5.0625 15.75H5.90625C6.37225 15.75 6.75 15.3722 6.75 14.9063V8.71875C6.75 8.25275 6.37225 7.875 5.90625 7.875H5.0625C3.96063 7.875 2.96469 8.32778 2.25 9.0572V9C2.25 5.27804 5.27804 2.25 9 2.25C12.722 2.25 15.75 5.27804 15.75 9V9.0572C15.0353 8.32778 14.0394 7.875 12.9375 7.875H12.0938C11.6278 7.875 11.25 8.25275 11.25 8.71875V14.9063C11.25 15.3722 11.6278 15.75 12.0938 15.75H12.9375C15.0672 15.75 16.8018 14.0591 16.8725 11.9466L17.3781 11.6937C17.565 11.6003 17.7221 11.4567 17.832 11.279C17.9418 11.1012 18 10.8964 18 10.6875V9C18 4.02613 13.9748 0 9 0Z" fill="#772AF4"/>
</svg>
