<svg width="26" height="26" viewBox="0 0 26 26" fill="none" xmlns="http://www.w3.org/2000/svg">
<path d="M24.05 5.63331C23.5084 4.98331 22.75 4.54998 21.8834 4.54998H9.10004C8.45004 4.54998 8.01671 4.98331 8.01671 5.63331C8.01671 6.28331 8.45004 6.71665 9.10004 6.71665H21.775C21.9917 6.71665 22.2084 6.82498 22.2084 6.93331C22.3167 7.14998 22.425 7.36665 22.3167 7.58331L20.8 14.1916C20.5834 15.275 19.6084 16.0333 18.525 16.0333H11.5917C10.5084 16.0333 9.64171 15.3833 9.31671 14.3L8.45004 11.5916L6.17504 4.11665C5.63337 2.27498 4.00837 1.08331 2.16671 1.08331C1.51671 1.08331 1.08337 1.51665 1.08337 2.16665C1.08337 2.81665 1.51671 3.24998 2.16671 3.24998C3.03337 3.24998 3.90004 3.89998 4.11671 4.76665L4.87504 7.25831L7.25837 14.95C7.80004 16.9 9.53337 18.2 11.5917 18.2H18.7417C20.9084 18.2 22.6417 16.6833 23.1834 14.625L24.7 8.01665C24.8084 7.25831 24.5917 6.39165 24.05 5.63331Z" fill="#717171"/>
<path d="M10.725 19.2833C9.20833 19.2833 7.90833 20.5833 7.90833 22.1C7.90833 23.6167 9.20833 24.9167 10.725 24.9167C12.2417 24.9167 13.5417 23.6167 13.5417 22.1C13.5417 20.5833 12.2417 19.2833 10.725 19.2833ZM10.725 22.75C10.4 22.75 10.075 22.425 10.075 22.1C10.075 21.775 10.4 21.45 10.725 21.45C11.05 21.45 11.375 21.775 11.375 22.1C11.375 22.425 11.05 22.75 10.725 22.75Z" fill="#717171"/>
<path d="M19.2833 19.2833C17.7667 19.2833 16.4667 20.5833 16.4667 22.1C16.4667 23.6167 17.7667 24.9167 19.2833 24.9167C20.8 24.9167 22.1 23.6167 22.1 22.1C22.1 20.5833 20.8 19.2833 19.2833 19.2833ZM19.2833 22.75C18.9583 22.75 18.6333 22.425 18.6333 22.1C18.6333 21.775 18.9583 21.45 19.2833 21.45C19.6083 21.45 19.9333 21.775 19.9333 22.1C19.9333 22.425 19.6083 22.75 19.2833 22.75Z" fill="#717171"/>
</svg>
