<svg width="27" height="26" viewBox="0 0 27 26" fill="none" xmlns="http://www.w3.org/2000/svg">
<path fill-rule="evenodd" clip-rule="evenodd" d="M10.1733 4.84279C8.79612 4.68887 7.37055 4.68887 5.99339 4.84279C5.65876 4.88019 5.39486 5.14516 5.35723 5.46698C5.19277 6.87308 5.19277 8.29356 5.35723 9.69967C5.39486 10.0215 5.65876 10.2864 5.99339 10.3239C7.37055 10.4778 8.79612 10.4778 10.1733 10.3239C10.5079 10.2864 10.7718 10.0215 10.8094 9.69967C10.9739 8.29356 10.9739 6.87308 10.8094 5.46698C10.7718 5.14516 10.5079 4.88019 10.1733 4.84279ZM5.8129 3.22785C7.31001 3.06053 8.85665 3.06053 10.3538 3.22785C11.4272 3.34781 12.2965 4.1928 12.4234 5.27821C12.6026 6.80973 12.6026 8.35691 12.4234 9.88844C12.2965 10.9738 11.4272 11.8188 10.3538 11.9388C8.85665 12.1061 7.31001 12.1061 5.8129 11.9388C4.73949 11.8188 3.87018 10.9738 3.74323 9.88844C3.5641 8.35691 3.5641 6.80973 3.74323 5.27821C3.87018 4.1928 4.73949 3.34781 5.8129 3.22785Z" fill="#717171"/>
<path fill-rule="evenodd" clip-rule="evenodd" d="M10.1733 15.6762C8.79612 15.5222 7.37055 15.5222 5.99339 15.6762C5.65876 15.7136 5.39486 15.9785 5.35723 16.3004C5.19277 17.7065 5.19277 19.1269 5.35723 20.533C5.39486 20.8548 5.65876 21.1198 5.99339 21.1572C7.37055 21.3111 8.79612 21.3111 10.1733 21.1572C10.5079 21.1198 10.7718 20.8548 10.8094 20.533C10.9739 19.1269 10.9739 17.7065 10.8094 16.3004C10.7718 15.9785 10.5079 15.7136 10.1733 15.6762ZM5.8129 14.0613C7.31001 13.8939 8.85665 13.8939 10.3538 14.0613C11.4272 14.1812 12.2965 15.0262 12.4234 16.1116C12.6026 17.6431 12.6026 19.1903 12.4234 20.7218C12.2965 21.8072 11.4272 22.6522 10.3538 22.7721C8.85665 22.9395 7.31001 22.9395 5.8129 22.7721C4.73949 22.6522 3.87018 21.8072 3.74323 20.7218C3.5641 19.1903 3.5641 17.6431 3.74323 16.1116C3.87018 15.0262 4.73949 14.1812 5.8129 14.0613Z" fill="#717171"/>
<path fill-rule="evenodd" clip-rule="evenodd" d="M21.0067 4.84279C19.6294 4.68887 18.2039 4.68887 16.8268 4.84279C16.4921 4.88019 16.2282 5.14516 16.1906 5.46698C16.0262 6.87308 16.0262 8.29356 16.1906 9.69967C16.2282 10.0215 16.4921 10.2864 16.8268 10.3239C18.2039 10.4778 19.6294 10.4778 21.0067 10.3239C21.3413 10.2864 21.6052 10.0215 21.6428 9.69967C21.8073 8.29356 21.8073 6.87308 21.6428 5.46698C21.6052 5.14516 21.3413 4.88019 21.0067 4.84279ZM16.6463 3.22785C18.1434 3.06053 19.69 3.06053 21.1872 3.22785C22.2605 3.34781 23.1299 4.1928 23.2568 5.27821C23.436 6.80973 23.436 8.35691 23.2568 9.88844C23.1299 10.9738 22.2605 11.8188 21.1872 11.9388C19.69 12.1061 18.1434 12.1061 16.6463 11.9388C15.5729 11.8188 14.7035 10.9738 14.5766 9.88844C14.3975 8.35691 14.3975 6.80973 14.5766 5.27821C14.7035 4.1928 15.5729 3.34781 16.6463 3.22785Z" fill="#717171"/>
<path fill-rule="evenodd" clip-rule="evenodd" d="M21.0067 15.6762C19.6294 15.5222 18.2039 15.5222 16.8268 15.6762C16.4921 15.7136 16.2282 15.9785 16.1906 16.3004C16.0262 17.7065 16.0262 19.1269 16.1906 20.533C16.2282 20.8548 16.4921 21.1198 16.8268 21.1572C18.2039 21.3111 19.6294 21.3111 21.0067 21.1572C21.3413 21.1198 21.6052 20.8548 21.6428 20.533C21.8073 19.1269 21.8073 17.7065 21.6428 16.3004C21.6052 15.9785 21.3413 15.7136 21.0067 15.6762ZM16.6463 14.0613C18.1434 13.8939 19.69 13.8939 21.1872 14.0613C22.2605 14.1812 23.1299 15.0262 23.2568 16.1116C23.436 17.6431 23.436 19.1903 23.2568 20.7218C23.1299 21.8072 22.2605 22.6522 21.1872 22.7721C19.69 22.9395 18.1434 22.9395 16.6463 22.7721C15.5729 22.6522 14.7035 21.8072 14.5766 20.7218C14.3975 19.1903 14.3975 17.6431 14.5766 16.1116C14.7035 15.0262 15.5729 14.1812 16.6463 14.0613Z" fill="#717171"/>
</svg>
