<svg width="23" height="23" viewBox="0 0 23 23" fill="none" xmlns="http://www.w3.org/2000/svg">
<path fill-rule="evenodd" clip-rule="evenodd" d="M12.3049 2.92638C11.796 2.58635 11.2041 2.58635 10.6953 2.92638L10.6769 2.93845L3.98284 7.21776C3.24315 7.68963 2.83341 8.50395 2.83341 9.31999V18.4621C2.83341 19.3252 3.51511 20.0047 4.36948 20.0047H18.6307C19.485 20.0047 20.1667 19.3252 20.1667 18.4621V9.31999C20.1667 8.47607 19.7203 7.71951 18.9962 7.20429L12.3233 2.93845L12.3049 2.92638ZM13.4988 1.11837C12.2663 0.300141 10.7338 0.300141 9.50133 1.11838L2.81669 5.39168C1.42233 6.28143 0.666748 7.80194 0.666748 9.31999V18.4621C0.666748 20.5167 2.3134 22.1714 4.36948 22.1714H18.6307C20.6867 22.1714 22.3334 20.5167 22.3334 18.4621V9.31999C22.3334 7.64202 21.4289 6.26437 20.2231 5.41822C20.2104 5.40927 20.1974 5.40062 20.1843 5.39223L13.4988 1.11837Z" fill="#6610F2"/>
</svg>
