<svg width="27" height="26" viewBox="0 0 27 26" fill="none" xmlns="http://www.w3.org/2000/svg">
<path d="M19.675 2.16669H7.32496C4.72496 2.16669 2.66663 4.22502 2.66663 6.82502V19.2834C2.66663 21.775 4.72496 23.8334 7.32496 23.8334H19.7833C22.3833 23.8334 24.4416 21.775 24.4416 19.175V6.82502C24.3333 4.22502 22.275 2.16669 19.675 2.16669ZM22.1666 19.175C22.1666 20.5834 21.0833 21.6667 19.675 21.6667H7.32496C5.91663 21.6667 4.83329 20.5834 4.83329 19.175V6.82502C4.83329 5.41669 5.91663 4.33335 7.32496 4.33335H8.94996V13C8.94996 13.4334 9.16663 13.7584 9.59996 13.975C9.59996 14.0834 9.81663 14.0834 9.92496 14.0834C10.1416 14.0834 10.3583 13.975 10.575 13.8667L13.5 11.7L16.425 13.8667C16.75 14.0834 17.1833 14.1917 17.5083 13.975C17.8333 13.7584 18.1583 13.4334 18.1583 13V6.50002C18.1583 5.85002 17.725 5.41669 17.075 5.41669C16.425 5.41669 15.9916 5.85002 15.9916 6.50002V10.8334L14.15 9.42502C13.7166 9.10002 13.2833 9.10002 12.85 9.42502L11.0083 10.8334V4.33335H19.675C21.0833 4.33335 22.1666 5.41669 22.1666 6.82502V19.175Z" fill="#717171"/>
<path d="M12.6334 18.0917H7.32503C6.67503 18.0917 6.2417 18.525 6.2417 19.175C6.2417 19.825 6.67503 20.2583 7.32503 20.2583H12.6334C13.2834 20.2583 13.7167 19.825 13.7167 19.175C13.7167 18.525 13.175 18.0917 12.6334 18.0917Z" fill="#717171"/>
</svg>
