<svg width="27" height="26" viewBox="0 0 27 26" fill="none" xmlns="http://www.w3.org/2000/svg">
<path d="M22.9024 19.9162C21.8166 17.2632 19.7538 15.2734 17.2566 14.2785C18.668 13.173 19.5367 11.4043 19.5367 9.52508C19.5367 5.98767 16.8223 3.22406 13.4565 3.22406C10.0907 3.22406 7.37636 5.98767 7.37636 9.41454C7.37636 11.2938 8.24496 13.0625 9.65641 14.1679C7.15922 15.1629 5.09631 17.1526 4.01058 19.8057C3.57628 20.9111 3.68486 22.2377 4.3363 23.2326C4.98774 24.338 6.18205 24.8908 7.48493 24.8908H19.5367C20.8395 24.8908 21.9253 24.2274 22.6853 23.2326C23.3367 22.2377 23.4453 21.0216 22.9024 19.9162ZM9.54784 9.41454C9.54784 7.20365 11.285 5.43495 13.4565 5.43495C15.628 5.43495 17.3651 7.20365 17.3651 9.41454C17.3651 11.6255 15.628 13.3941 13.4565 13.3941C11.285 13.3941 9.54784 11.6255 9.54784 9.41454ZM20.8395 22.1272C20.5138 22.5693 20.0795 22.9009 19.5367 22.9009H7.37636C6.83349 22.9009 6.39921 22.6799 6.07348 22.1272C5.74776 21.685 5.74776 21.2427 5.96491 20.8006C7.26779 17.5948 10.1993 15.605 13.4565 15.605C16.7137 15.605 19.6452 17.5948 20.9481 20.69C21.1652 21.1322 21.0567 21.685 20.8395 22.1272Z" fill="#717171"/>
</svg>
