<svg width="10" height="12" viewBox="0 0 10 12" fill="none" xmlns="http://www.w3.org/2000/svg">
<path d="M1.73454 12V7.888H0.486538V6.864H1.73454V5.552H0.486538V4.528H1.73454V0.575999H3.39854L4.91854 4.528H6.80654V0.575999H8.07054V4.528H9.31854V5.552H8.07054V6.864H9.31854V7.888H8.07054V12H6.39054L4.87054 7.888H2.98254V12H1.73454ZM2.98254 6.864H4.48654L4.00654 5.552H2.95054L2.98254 6.864ZM6.80654 9.744H6.87054L6.82254 7.888H6.15054L6.80654 9.744ZM2.95054 4.528H3.62254L2.95054 2.544H2.88654L2.95054 4.528ZM5.76654 6.864H6.83854L6.80654 5.552H5.28654L5.76654 6.864Z" fill="#717171"/>
</svg>
